<svg xmlns="http://www.w3.org/2000/svg" width="152.152" height="152" viewBox="0 0 152.152 152">
  <g id="quotes-right" transform="translate(0 0)" opacity="0.08">
    <path id="Trazado_2" data-name="Trazado 2" d="M118.75,69.5A33.25,33.25,0,1,1,152,36.25l.152,4.75a66.5,66.5,0,0,1-66.5,66.5v-19a47.594,47.594,0,0,0,38.314-19.4,33.7,33.7,0,0,1-5.216.409Zm-85.5,0A33.25,33.25,0,1,1,66.5,36.25L66.652,41a66.5,66.5,0,0,1-66.5,66.5v-19A47.215,47.215,0,0,0,33.744,74.592,47.6,47.6,0,0,0,38.465,69.1a33.7,33.7,0,0,1-5.215.409Z" transform="translate(0 25.5)" fill="#626262"/>
    <rect id="Rectángulo_18" data-name="Rectángulo 18" width="152" height="152" transform="translate(0 0)" fill="rgba(0,0,0,0)"/>
  </g>
</svg>
